<mxfile host="app.diagrams.net" modified="2023-11-18T02:09:44.064Z" agent="Mozilla/5.0 (Windows NT 10.0; Win64; x64) AppleWebKit/537.36 (KHTML, like Gecko) Chrome/116.0.0.0 Safari/537.36" etag="ZVjwLm44OXG5HQbcN7jE" version="22.1.3" type="github">
  <diagram name="Page-1" id="5f0bae14-7c28-e335-631c-24af17079c00">
    <mxGraphModel dx="1687" dy="853" grid="1" gridSize="10" guides="1" tooltips="1" connect="1" arrows="1" fold="1" page="1" pageScale="1" pageWidth="1100" pageHeight="850" background="none" math="0" shadow="0">
      <root>
        <mxCell id="0" />
        <mxCell id="1" parent="0" />
        <mxCell id="39150e848f15840c-1" value="&amp;lt;&amp;lt;device&amp;gt;&amp;gt;&lt;br&gt;PC Empleado" style="verticalAlign=top;align=left;spacingTop=8;spacingLeft=2;spacingRight=12;shape=cube;size=10;direction=south;fontStyle=4;html=1;rounded=0;shadow=0;comic=0;labelBackgroundColor=none;strokeWidth=1;fontFamily=Verdana;fontSize=12" parent="1" vertex="1">
          <mxGeometry x="120" y="95" width="200" height="140" as="geometry" />
        </mxCell>
        <mxCell id="39150e848f15840c-2" value="&amp;lt;&amp;lt;device&amp;gt;&amp;gt;&lt;br&gt;Servidor web" style="verticalAlign=top;align=left;spacingTop=8;spacingLeft=2;spacingRight=12;shape=cube;size=10;direction=south;fontStyle=4;html=1;rounded=0;shadow=0;comic=0;labelBackgroundColor=none;strokeWidth=1;fontFamily=Verdana;fontSize=12" parent="1" vertex="1">
          <mxGeometry x="400" y="70" width="560" height="430" as="geometry" />
        </mxCell>
        <mxCell id="39150e848f15840c-4" value="«artifact»&lt;br&gt;Navegador web" style="html=1;rounded=0;shadow=0;comic=0;labelBackgroundColor=none;strokeWidth=1;fontFamily=Verdana;fontSize=12;align=center;" parent="1" vertex="1">
          <mxGeometry x="160" y="140" width="110" height="50" as="geometry" />
        </mxCell>
        <mxCell id="j6kh5TIL4cwImSu9_BoX-1" value="Empleado" style="shape=umlActor;verticalLabelPosition=bottom;verticalAlign=top;html=1;outlineConnect=0;" vertex="1" parent="1">
          <mxGeometry x="40" y="135" width="30" height="60" as="geometry" />
        </mxCell>
        <mxCell id="j6kh5TIL4cwImSu9_BoX-3" value="" style="endArrow=classic;startArrow=classic;html=1;rounded=0;entryX=0.22;entryY=0.996;entryDx=0;entryDy=0;entryPerimeter=0;" edge="1" parent="1" source="39150e848f15840c-1" target="39150e848f15840c-2">
          <mxGeometry width="50" height="50" relative="1" as="geometry">
            <mxPoint x="460" y="220" as="sourcePoint" />
            <mxPoint x="510" y="170" as="targetPoint" />
          </mxGeometry>
        </mxCell>
        <mxCell id="j6kh5TIL4cwImSu9_BoX-39" value="HTTP" style="edgeLabel;html=1;align=center;verticalAlign=middle;resizable=0;points=[];" vertex="1" connectable="0" parent="j6kh5TIL4cwImSu9_BoX-3">
          <mxGeometry x="0.0029" y="1" relative="1" as="geometry">
            <mxPoint y="-14" as="offset" />
          </mxGeometry>
        </mxCell>
        <mxCell id="j6kh5TIL4cwImSu9_BoX-4" value="" style="shape=folder;fontStyle=1;spacingTop=10;tabWidth=40;tabHeight=14;tabPosition=left;html=1;whiteSpace=wrap;" vertex="1" parent="1">
          <mxGeometry x="430" y="135" width="520" height="85" as="geometry" />
        </mxCell>
        <mxCell id="j6kh5TIL4cwImSu9_BoX-5" value="&amp;lt;&amp;lt;interface&amp;gt;&amp;gt;&lt;br&gt;form.component.html" style="shape=module;align=left;spacingLeft=20;align=center;verticalAlign=top;whiteSpace=wrap;html=1;" vertex="1" parent="1">
          <mxGeometry x="450" y="160" width="150" height="50" as="geometry" />
        </mxCell>
        <mxCell id="j6kh5TIL4cwImSu9_BoX-8" value="&amp;lt;&amp;lt;style&amp;gt;&amp;gt;&lt;br&gt;form.component.css" style="shape=module;align=left;spacingLeft=20;align=center;verticalAlign=top;whiteSpace=wrap;html=1;" vertex="1" parent="1">
          <mxGeometry x="620" y="160" width="150" height="50" as="geometry" />
        </mxCell>
        <mxCell id="j6kh5TIL4cwImSu9_BoX-9" value="&amp;lt;&amp;lt;component&amp;gt;&amp;gt;&lt;br&gt;form.component.ts" style="shape=module;align=left;spacingLeft=20;align=center;verticalAlign=top;whiteSpace=wrap;html=1;" vertex="1" parent="1">
          <mxGeometry x="790" y="160" width="150" height="50" as="geometry" />
        </mxCell>
        <mxCell id="j6kh5TIL4cwImSu9_BoX-10" value="&amp;lt;&amp;lt;service&amp;gt;&amp;gt;&lt;br&gt;registro.service.js" style="shape=module;align=left;spacingLeft=20;align=center;verticalAlign=top;whiteSpace=wrap;html=1;" vertex="1" parent="1">
          <mxGeometry x="430" y="260" width="170" height="50" as="geometry" />
        </mxCell>
        <mxCell id="j6kh5TIL4cwImSu9_BoX-11" value="&amp;lt;&amp;lt;service&amp;gt;&amp;gt;&lt;br&gt;notifi.service.js" style="shape=module;align=left;spacingLeft=20;align=center;verticalAlign=top;whiteSpace=wrap;html=1;fillColor=#e1d5e7;strokeColor=#9673a6;" vertex="1" parent="1">
          <mxGeometry x="430" y="410" width="170" height="50" as="geometry" />
        </mxCell>
        <mxCell id="j6kh5TIL4cwImSu9_BoX-12" value="&amp;lt;&amp;lt;method&amp;gt;&amp;gt;&lt;br&gt;guardarEstudiante" style="shape=module;align=left;spacingLeft=20;align=center;verticalAlign=top;whiteSpace=wrap;html=1;" vertex="1" parent="1">
          <mxGeometry x="430" y="340" width="170" height="50" as="geometry" />
        </mxCell>
        <mxCell id="j6kh5TIL4cwImSu9_BoX-13" value="" style="rounded=0;orthogonalLoop=1;jettySize=auto;html=1;endArrow=halfCircle;endFill=0;endSize=6;strokeWidth=1;sketch=0;" edge="1" target="j6kh5TIL4cwImSu9_BoX-15" parent="1" source="j6kh5TIL4cwImSu9_BoX-10">
          <mxGeometry relative="1" as="geometry">
            <mxPoint x="700" y="255" as="sourcePoint" />
          </mxGeometry>
        </mxCell>
        <mxCell id="j6kh5TIL4cwImSu9_BoX-14" value="" style="rounded=0;orthogonalLoop=1;jettySize=auto;html=1;endArrow=oval;endFill=0;sketch=0;sourcePerimeterSpacing=0;targetPerimeterSpacing=0;endSize=10;exitX=0.5;exitY=1;exitDx=0;exitDy=0;exitPerimeter=0;" edge="1" target="j6kh5TIL4cwImSu9_BoX-15" parent="1" source="j6kh5TIL4cwImSu9_BoX-4">
          <mxGeometry relative="1" as="geometry">
            <mxPoint x="660" y="255" as="sourcePoint" />
          </mxGeometry>
        </mxCell>
        <mxCell id="j6kh5TIL4cwImSu9_BoX-15" value="" style="ellipse;whiteSpace=wrap;html=1;align=center;aspect=fixed;fillColor=none;strokeColor=none;resizable=0;perimeter=centerPerimeter;rotatable=0;allowArrows=0;points=[];outlineConnect=1;" vertex="1" parent="1">
          <mxGeometry x="685" y="280" width="10" height="10" as="geometry" />
        </mxCell>
        <mxCell id="j6kh5TIL4cwImSu9_BoX-18" value="&amp;lt;&amp;lt;library&amp;gt;&amp;gt;&lt;br&gt;SweetAlert" style="shape=module;align=left;spacingLeft=20;align=center;verticalAlign=top;whiteSpace=wrap;html=1;" vertex="1" parent="1">
          <mxGeometry x="770" y="260" width="170" height="50" as="geometry" />
        </mxCell>
        <mxCell id="j6kh5TIL4cwImSu9_BoX-19" value="&amp;lt;&amp;lt;library&amp;gt;&amp;gt;&lt;br&gt;NodeMailer" style="shape=module;align=left;spacingLeft=20;align=center;verticalAlign=top;whiteSpace=wrap;html=1;fillColor=#e1d5e7;strokeColor=#9673a6;" vertex="1" parent="1">
          <mxGeometry x="800" y="420" width="110" height="50" as="geometry" />
        </mxCell>
        <mxCell id="j6kh5TIL4cwImSu9_BoX-20" value="&amp;lt;&amp;lt;method&amp;gt;&amp;gt;&lt;br&gt;notificarEstudiante" style="shape=module;align=left;spacingLeft=20;align=center;verticalAlign=top;whiteSpace=wrap;html=1;fillColor=#e1d5e7;strokeColor=#9673a6;" vertex="1" parent="1">
          <mxGeometry x="770" y="340" width="170" height="50" as="geometry" />
        </mxCell>
        <mxCell id="j6kh5TIL4cwImSu9_BoX-21" value="" style="rounded=0;orthogonalLoop=1;jettySize=auto;html=1;endArrow=halfCircle;endFill=0;endSize=6;strokeWidth=1;sketch=0;" edge="1" target="j6kh5TIL4cwImSu9_BoX-23" parent="1" source="j6kh5TIL4cwImSu9_BoX-12">
          <mxGeometry relative="1" as="geometry">
            <mxPoint x="700" y="395" as="sourcePoint" />
          </mxGeometry>
        </mxCell>
        <mxCell id="j6kh5TIL4cwImSu9_BoX-22" value="" style="rounded=0;orthogonalLoop=1;jettySize=auto;html=1;endArrow=oval;endFill=0;sketch=0;sourcePerimeterSpacing=0;targetPerimeterSpacing=0;endSize=10;" edge="1" target="j6kh5TIL4cwImSu9_BoX-23" parent="1" source="j6kh5TIL4cwImSu9_BoX-10">
          <mxGeometry relative="1" as="geometry">
            <mxPoint x="660" y="395" as="sourcePoint" />
          </mxGeometry>
        </mxCell>
        <mxCell id="j6kh5TIL4cwImSu9_BoX-23" value="" style="ellipse;whiteSpace=wrap;html=1;align=center;aspect=fixed;fillColor=none;strokeColor=none;resizable=0;perimeter=centerPerimeter;rotatable=0;allowArrows=0;points=[];outlineConnect=1;" vertex="1" parent="1">
          <mxGeometry x="510" y="320" width="10" height="10" as="geometry" />
        </mxCell>
        <mxCell id="j6kh5TIL4cwImSu9_BoX-24" value="" style="rounded=0;orthogonalLoop=1;jettySize=auto;html=1;endArrow=halfCircle;endFill=0;endSize=6;strokeWidth=1;sketch=0;" edge="1" target="j6kh5TIL4cwImSu9_BoX-26" parent="1" source="j6kh5TIL4cwImSu9_BoX-11">
          <mxGeometry relative="1" as="geometry">
            <mxPoint x="430" y="395" as="sourcePoint" />
            <Array as="points">
              <mxPoint x="410" y="435" />
            </Array>
          </mxGeometry>
        </mxCell>
        <mxCell id="j6kh5TIL4cwImSu9_BoX-25" value="" style="rounded=0;orthogonalLoop=1;jettySize=auto;html=1;endArrow=oval;endFill=0;sketch=0;sourcePerimeterSpacing=0;targetPerimeterSpacing=0;endSize=10;" edge="1" target="j6kh5TIL4cwImSu9_BoX-26" parent="1" source="j6kh5TIL4cwImSu9_BoX-10">
          <mxGeometry relative="1" as="geometry">
            <mxPoint x="390" y="395" as="sourcePoint" />
            <Array as="points">
              <mxPoint x="410" y="285" />
            </Array>
          </mxGeometry>
        </mxCell>
        <mxCell id="j6kh5TIL4cwImSu9_BoX-26" value="" style="ellipse;whiteSpace=wrap;html=1;align=center;aspect=fixed;fillColor=none;strokeColor=none;resizable=0;perimeter=centerPerimeter;rotatable=0;allowArrows=0;points=[];outlineConnect=1;" vertex="1" parent="1">
          <mxGeometry x="405" y="365" width="10" height="10" as="geometry" />
        </mxCell>
        <mxCell id="j6kh5TIL4cwImSu9_BoX-27" value="" style="rounded=0;orthogonalLoop=1;jettySize=auto;html=1;endArrow=halfCircle;endFill=0;endSize=6;strokeWidth=1;sketch=0;" edge="1" target="j6kh5TIL4cwImSu9_BoX-29" parent="1" source="j6kh5TIL4cwImSu9_BoX-20">
          <mxGeometry relative="1" as="geometry">
            <mxPoint x="725" y="385" as="sourcePoint" />
            <Array as="points">
              <mxPoint x="725" y="365" />
            </Array>
          </mxGeometry>
        </mxCell>
        <mxCell id="j6kh5TIL4cwImSu9_BoX-28" value="" style="rounded=0;orthogonalLoop=1;jettySize=auto;html=1;endArrow=oval;endFill=0;sketch=0;sourcePerimeterSpacing=0;targetPerimeterSpacing=0;endSize=10;" edge="1" target="j6kh5TIL4cwImSu9_BoX-29" parent="1" source="j6kh5TIL4cwImSu9_BoX-11">
          <mxGeometry relative="1" as="geometry">
            <mxPoint x="685" y="385" as="sourcePoint" />
          </mxGeometry>
        </mxCell>
        <mxCell id="j6kh5TIL4cwImSu9_BoX-29" value="" style="ellipse;whiteSpace=wrap;html=1;align=center;aspect=fixed;fillColor=none;strokeColor=none;resizable=0;perimeter=centerPerimeter;rotatable=0;allowArrows=0;points=[];outlineConnect=1;" vertex="1" parent="1">
          <mxGeometry x="720" y="430" width="10" height="10" as="geometry" />
        </mxCell>
        <mxCell id="j6kh5TIL4cwImSu9_BoX-30" value="" style="rounded=0;orthogonalLoop=1;jettySize=auto;html=1;endArrow=halfCircle;endFill=0;endSize=6;strokeWidth=1;sketch=0;" edge="1" target="j6kh5TIL4cwImSu9_BoX-32" parent="1" source="j6kh5TIL4cwImSu9_BoX-11">
          <mxGeometry relative="1" as="geometry">
            <mxPoint x="685" y="345" as="sourcePoint" />
            <Array as="points">
              <mxPoint x="675" y="435" />
            </Array>
          </mxGeometry>
        </mxCell>
        <mxCell id="j6kh5TIL4cwImSu9_BoX-31" value="" style="rounded=0;orthogonalLoop=1;jettySize=auto;html=1;endArrow=oval;endFill=0;sketch=0;sourcePerimeterSpacing=0;targetPerimeterSpacing=0;endSize=10;exitX=0;exitY=1;exitDx=10;exitDy=0;exitPerimeter=0;" edge="1" target="j6kh5TIL4cwImSu9_BoX-32" parent="1" source="j6kh5TIL4cwImSu9_BoX-18">
          <mxGeometry relative="1" as="geometry">
            <mxPoint x="645" y="345" as="sourcePoint" />
            <Array as="points">
              <mxPoint x="675" y="310" />
            </Array>
          </mxGeometry>
        </mxCell>
        <mxCell id="j6kh5TIL4cwImSu9_BoX-32" value="" style="ellipse;whiteSpace=wrap;html=1;align=center;aspect=fixed;fillColor=none;strokeColor=none;resizable=0;perimeter=centerPerimeter;rotatable=0;allowArrows=0;points=[];outlineConnect=1;" vertex="1" parent="1">
          <mxGeometry x="670" y="365" width="10" height="10" as="geometry" />
        </mxCell>
        <mxCell id="j6kh5TIL4cwImSu9_BoX-33" value="" style="rounded=0;orthogonalLoop=1;jettySize=auto;html=1;endArrow=halfCircle;endFill=0;endSize=6;strokeWidth=1;sketch=0;" edge="1" target="j6kh5TIL4cwImSu9_BoX-35" parent="1" source="j6kh5TIL4cwImSu9_BoX-20">
          <mxGeometry relative="1" as="geometry">
            <mxPoint x="850" y="555" as="sourcePoint" />
          </mxGeometry>
        </mxCell>
        <mxCell id="j6kh5TIL4cwImSu9_BoX-34" value="" style="rounded=0;orthogonalLoop=1;jettySize=auto;html=1;endArrow=oval;endFill=0;sketch=0;sourcePerimeterSpacing=0;targetPerimeterSpacing=0;endSize=10;" edge="1" target="j6kh5TIL4cwImSu9_BoX-35" parent="1" source="j6kh5TIL4cwImSu9_BoX-19">
          <mxGeometry relative="1" as="geometry">
            <mxPoint x="810" y="555" as="sourcePoint" />
          </mxGeometry>
        </mxCell>
        <mxCell id="j6kh5TIL4cwImSu9_BoX-35" value="" style="ellipse;whiteSpace=wrap;html=1;align=center;aspect=fixed;fillColor=none;strokeColor=none;resizable=0;perimeter=centerPerimeter;rotatable=0;allowArrows=0;points=[];outlineConnect=1;" vertex="1" parent="1">
          <mxGeometry x="850" y="400" width="10" height="10" as="geometry" />
        </mxCell>
        <mxCell id="j6kh5TIL4cwImSu9_BoX-36" value="" style="endArrow=classic;html=1;rounded=0;" edge="1" parent="1" source="j6kh5TIL4cwImSu9_BoX-1" target="39150e848f15840c-1">
          <mxGeometry width="50" height="50" relative="1" as="geometry">
            <mxPoint x="20" y="370" as="sourcePoint" />
            <mxPoint x="70" y="320" as="targetPoint" />
          </mxGeometry>
        </mxCell>
        <mxCell id="j6kh5TIL4cwImSu9_BoX-37" value="&amp;lt;&amp;lt;device&amp;gt;&amp;gt;&lt;br&gt;Server BD" style="verticalAlign=top;align=left;spacingTop=8;spacingLeft=2;spacingRight=12;shape=cube;size=10;direction=south;fontStyle=4;html=1;whiteSpace=wrap;" vertex="1" parent="1">
          <mxGeometry x="140" y="340" width="180" height="120" as="geometry" />
        </mxCell>
        <mxCell id="j6kh5TIL4cwImSu9_BoX-40" value="" style="endArrow=classic;startArrow=classic;html=1;rounded=0;entryX=0.22;entryY=0.996;entryDx=0;entryDy=0;entryPerimeter=0;" edge="1" parent="1">
          <mxGeometry width="50" height="50" relative="1" as="geometry">
            <mxPoint x="318" y="410" as="sourcePoint" />
            <mxPoint x="400" y="410" as="targetPoint" />
          </mxGeometry>
        </mxCell>
        <mxCell id="j6kh5TIL4cwImSu9_BoX-41" value="TCP/IP" style="edgeLabel;html=1;align=center;verticalAlign=middle;resizable=0;points=[];" vertex="1" connectable="0" parent="j6kh5TIL4cwImSu9_BoX-40">
          <mxGeometry x="0.0029" y="1" relative="1" as="geometry">
            <mxPoint y="-14" as="offset" />
          </mxGeometry>
        </mxCell>
      </root>
    </mxGraphModel>
  </diagram>
</mxfile>
